<?xml version="1.0" encoding="UTF-8" standalone="no"?>
<!-- Created with Inkscape (http://www.inkscape.org/) -->

<svg
   width="48mm"
   height="48mm"
   viewBox="0 0 48 48"
   version="1.1"
   id="svg5"
   inkscape:version="1.1.1 (3bf5ae0d25, 2021-09-20)"
   sodipodi:docname="mouse 6.svg"
   inkscape:export-filename="C:\Users\evash\git\mousejump\sidebars.png"
   inkscape:export-xdpi="12.7"
   inkscape:export-ydpi="12.7"
   xmlns:inkscape="http://www.inkscape.org/namespaces/inkscape"
   xmlns:sodipodi="http://sodipodi.sourceforge.net/DTD/sodipodi-0.dtd"
   xmlns:xlink="http://www.w3.org/1999/xlink"
   xmlns="http://www.w3.org/2000/svg"
   xmlns:svg="http://www.w3.org/2000/svg">
  <sodipodi:namedview
     id="namedview7"
     pagecolor="#ffffff"
     bordercolor="#666666"
     borderopacity="1.0"
     inkscape:pageshadow="2"
     inkscape:pageopacity="0.0"
     inkscape:pagecheckerboard="0"
     inkscape:document-units="mm"
     showgrid="false"
     objecttolerance="1"
     inkscape:zoom="4.4593316"
     inkscape:cx="90.708661"
     inkscape:cy="54.828845"
     inkscape:window-width="1920"
     inkscape:window-height="1017"
     inkscape:window-x="-8"
     inkscape:window-y="-8"
     inkscape:window-maximized="1"
     inkscape:current-layer="layer1" />
  <defs
     id="defs2">
    <linearGradient
       inkscape:collect="always"
       id="linearGradient12933">
      <stop
         style="stop-color:#ffffff;stop-opacity:1"
         offset="0"
         id="stop12929" />
      <stop
         style="stop-color:#a7a7a7;stop-opacity:1"
         offset="1"
         id="stop12931" />
    </linearGradient>
    <linearGradient
       inkscape:collect="always"
       id="linearGradient11211">
      <stop
         style="stop-color:#f5f5f5;stop-opacity:1"
         offset="0"
         id="stop11207" />
      <stop
         style="stop-color:#898989;stop-opacity:1"
         offset="1"
         id="stop11209" />
    </linearGradient>
    <linearGradient
       inkscape:collect="always"
       id="linearGradient5679">
      <stop
         style="stop-color:#ffffff;stop-opacity:1"
         offset="0"
         id="stop5675" />
      <stop
         style="stop-color:#a7a7a7;stop-opacity:1"
         offset="1"
         id="stop5677" />
    </linearGradient>
    <radialGradient
       inkscape:collect="always"
       xlink:href="#linearGradient12933"
       id="radialGradient24941"
       cx="17.194958"
       cy="17.138945"
       fx="17.194958"
       fy="17.138945"
       r="16.5"
       gradientTransform="matrix(1.3225833,-0.01212818,0.01667308,1.8182062,-6.254476,-14.034358)"
       gradientUnits="userSpaceOnUse" />
    <radialGradient
       inkscape:collect="always"
       xlink:href="#linearGradient5679"
       id="radialGradient5681"
       cx="27.519974"
       cy="15.856466"
       fx="27.519974"
       fy="15.856466"
       r="6.1322915"
       gradientTransform="matrix(2.6835883,1.3715803,-2.2738605,4.4489598,-9.9658752,-90.041869)"
       gradientUnits="userSpaceOnUse" />
    <radialGradient
       inkscape:collect="always"
       xlink:href="#linearGradient11211"
       id="radialGradient7615"
       cx="22.480949"
       cy="10.735336"
       fx="22.480949"
       fy="10.735336"
       r="4.5"
       gradientTransform="matrix(1.2364996,0.01792436,-0.03947299,2.7230156,-4.6792463,-20.569648)"
       gradientUnits="userSpaceOnUse" />
  </defs>
  <g
     inkscape:label="Layer 1"
     inkscape:groupmode="layer"
     id="layer1">
    <path
       style="fill:url(#radialGradient24941);fill-opacity:1;stroke:none;stroke-width:3;stroke-linecap:butt;stroke-linejoin:miter;stroke-miterlimit:4;stroke-dasharray:none;stroke-opacity:1"
       d="M 24,46.5 C 11.774352,46.503292 7.5,38.676593 7.5,28.5 V 10.798 C 7.5,6.0326575 11.579828,1.5 16.5,1.5 h 15 c 4.400565,0 9,3.7601354 9,8.852 V 28.5 c 0,10.922009 -4.274352,17.996708 -16.5,18 z"
       id="path23955"
       sodipodi:nodetypes="zssssssz" />
    <path
       style="fill:url(#radialGradient5681);fill-opacity:1;stroke:none;stroke-width:0.265;stroke-linecap:butt;stroke-linejoin:miter;stroke-miterlimit:4;stroke-dasharray:none;stroke-opacity:1"
       d="m 18,8.5 c 0,-7.6209997 12,-7.71694385 12,0 v 7 c 0,11.86359 -12,11.988667 -12,0 z"
       id="path1583"
       sodipodi:nodetypes="sssss" />
    <path
       style="fill:url(#radialGradient7615);fill-opacity:1;stroke:none;stroke-width:2;stroke-linecap:butt;stroke-linejoin:miter;stroke-miterlimit:4;stroke-dasharray:none;stroke-opacity:1"
       d="m 20.5,8.5 c 0,-4.0189644 7,-4.5231913 7,0 v 7 c 0,4.607739 -7,4.747324 -7,0 z"
       id="path10865"
       sodipodi:nodetypes="sssss" />
    <path
       style="display:inline;mix-blend-mode:difference;fill:#a7a7a7;fill-opacity:1;stroke:#a7a7a7;stroke-width:3;stroke-linecap:butt;stroke-linejoin:miter;stroke-miterlimit:4;stroke-dasharray:none;stroke-opacity:1"
       d="m 9,25.5 h 13.5 v -5.678 c -1.120169,-0.43473 -3,-1.343649 -3,-4.322 v -7 c 0,-2.3367682 1.635352,-3.5868721 3,-3.9656675 V 3 h -7 C 12.064079,3 9,7.5469418 9,11 Z"
       id="path34105"
       sodipodi:nodetypes="cccssccssc" />
    <path
       style="display:inline;mix-blend-mode:difference;fill:#a7a7a7;fill-opacity:1;stroke:#a7a7a7;stroke-width:3;stroke-linecap:butt;stroke-linejoin:miter;stroke-miterlimit:4;stroke-dasharray:none;stroke-opacity:1"
       d="m 28.5,15.5 c 0,5.996584 -9,6.004309 -9,0 v -7 c 0,-5.7780538 9,-5.8616388 9,0 z"
       id="path4364"
       sodipodi:nodetypes="sssss" />
    <path
       style="display:inline;mix-blend-mode:difference;fill:#a7a7a7;fill-opacity:1;stroke:#a7a7a7;stroke-width:3;stroke-linecap:butt;stroke-linejoin:miter;stroke-miterlimit:4;stroke-dasharray:none;stroke-opacity:1"
       d="M 39,25.5 H 25.5 v -5.678 c 1.120169,-0.43473 3,-1.343649 3,-4.322 v -7 c 0,-2.3367682 -1.635352,-3.5868721 -3,-3.9656675 V 3 h 7 c 3.435921,0 6.5,4.5469418 6.5,8 z"
       id="path9842"
       sodipodi:nodetypes="cccssccssc" />
    <path
       style="fill:none;stroke:#000000;stroke-width:3;stroke-linecap:butt;stroke-linejoin:miter;stroke-miterlimit:4;stroke-dasharray:none;stroke-opacity:1"
       d="M 24,46.5 C 11.774352,46.503292 7.5,38.676593 7.5,28.5 V 10.798 C 7.5,6.0326575 11.579828,1.5 16.5,1.5 h 15 c 4.400565,0 9,3.7601354 9,8.852 V 28.5 c 0,10.922009 -4.274352,17.996708 -16.5,18 z"
       id="path66"
       sodipodi:nodetypes="zssssssz" />
  </g>
</svg>
