<?xml version="1.0" encoding="UTF-8" standalone="no"?>
<!-- Created with Inkscape (http://www.inkscape.org/) -->

<svg
   width="16mm"
   height="16mm"
   viewBox="0 0 16 16"
   version="1.1"
   id="svg5"
   inkscape:version="1.1.2 (0a00cf5339, 2022-02-04, custom)"
   sodipodi:docname="delete_path.svg"
   xmlns:inkscape="http://www.inkscape.org/namespaces/inkscape"
   xmlns:sodipodi="http://sodipodi.sourceforge.net/DTD/sodipodi-0.dtd"
   xmlns="http://www.w3.org/2000/svg"
   xmlns:svg="http://www.w3.org/2000/svg">
  <sodipodi:namedview
     id="namedview7"
     pagecolor="#ffffff"
     bordercolor="#666666"
     borderopacity="1.0"
     inkscape:pageshadow="2"
     inkscape:pageopacity="0.0"
     inkscape:pagecheckerboard="0"
     inkscape:document-units="mm"
     showgrid="false"
     width="16mm"
     inkscape:zoom="8.3755251"
     inkscape:cx="55.459209"
     inkscape:cy="21.252399"
     inkscape:window-width="1920"
     inkscape:window-height="1017"
     inkscape:window-x="-8"
     inkscape:window-y="-8"
     inkscape:window-maximized="1"
     inkscape:current-layer="layer1" />
  <defs
     id="defs2" />
  <g
     inkscape:label="Layer 1"
     inkscape:groupmode="layer"
     id="layer1">
    <path
       id="path888"
       style="color:#000000;fill:#000000;stroke-width:0.999999;stroke-linecap:round;stroke-linejoin:round;-inkscape-stroke:none"
       d="M 8.00002,0 C 6.79634,0 5.78392,0.862472 5.55056,1.99988 H 0.999938 C 0.72382,2.00003 0.500101,2.22398 0.500227,2.5001 0.500387,2.77602 0.724021,2.99965 0.999938,2.99981 H 1.55443 L 2.84375,14.2947 c 0.05294,0.4637 0.31789,0.8117 0.6289,1.1193 C 3.78366,15.7216 4.1419,16 4.64467,16 h 3.35535 3.35538 c 0.5027,0 0.861,-0.2784 1.172,-0.586 0.311,-0.3076 0.5759,-0.6556 0.6289,-1.1193 L 14.4456,2.99981 h 0.5545 C 15.276,2.99965 15.4997,2.77602 15.4998,2.5001 15.4999,2.22398 15.2762,2.00003 15.0001,1.99988 H 10.4495 C 10.2161,0.862472 9.20369,0 8.00002,0 Z m 0,0.999938 c 0.65864,0 1.21201,0.414782 1.41593,0.999942 H 6.58409 C 6.78801,1.41472 7.34137,0.999938 8.00002,0.999938 Z M 2.55953,2.99981 H 13.4405 L 12.162,14.1815 c -0.0046,0.0403 -0.1382,0.3239 -0.3379,0.5215 -0.1998,0.1975 -0.4643,0.2971 -0.4687,0.2971 H 8.00002 4.64467 c -0.00442,0 -0.26896,-0.0996 -0.4687,-0.2971 C 3.97622,14.5054 3.8426,14.2218 3.838,14.1815 Z M 6.49985,6.00014 C 6.22394,6.0003 6.0003,6.22394 6.00014,6.49985 v 5.00025 c 1.6e-4,0.2759 0.2238,0.4995 0.49971,0.4997 0.27612,10e-5 0.50007,-0.2236 0.50023,-0.4997 V 6.49985 C 6.99992,6.22374 6.77597,6.00002 6.49985,6.00014 Z m 3.00033,0 C 9.22407,6.00002 9.00012,6.22374 8.99996,6.49985 v 5.00025 c 1.6e-4,0.2761 0.22411,0.4998 0.50022,0.4997 0.27592,-2e-4 0.49955,-0.2238 0.49971,-0.4997 V 6.49985 C 9.99973,6.22394 9.7761,6.0003 9.50018,6.00014 Z" />
  </g>
</svg>
