<?xml version="1.0" encoding="UTF-8" standalone="no"?>
<!-- Created with Inkscape (http://www.inkscape.org/) -->

<svg
   width="16mm"
   height="16mm"
   viewBox="0 0 16 16"
   version="1.1"
   id="svg5"
   inkscape:version="1.1.2 (0a00cf5339, 2022-02-04, custom)"
   sodipodi:docname="filter_path.svg"
   xmlns:inkscape="http://www.inkscape.org/namespaces/inkscape"
   xmlns:sodipodi="http://sodipodi.sourceforge.net/DTD/sodipodi-0.dtd"
   xmlns="http://www.w3.org/2000/svg"
   xmlns:svg="http://www.w3.org/2000/svg">
  <sodipodi:namedview
     id="namedview7"
     pagecolor="#ffffff"
     bordercolor="#666666"
     borderopacity="1.0"
     inkscape:pageshadow="2"
     inkscape:pageopacity="0.0"
     inkscape:pagecheckerboard="0"
     inkscape:document-units="mm"
     showgrid="false"
     width="16mm"
     inkscape:zoom="0.70710679"
     inkscape:cx="48.790367"
     inkscape:cy="-53.740115"
     inkscape:window-width="1920"
     inkscape:window-height="1017"
     inkscape:window-x="-8"
     inkscape:window-y="-8"
     inkscape:window-maximized="1"
     inkscape:current-layer="layer1" />
  <defs
     id="defs2" />
  <g
     inkscape:label="Layer 1"
     inkscape:groupmode="layer"
     id="layer1">
    <path
       id="path4337"
       style="color:#000000;fill:#000000;stroke-linejoin:round;-inkscape-stroke:none"
       d="m 10.007812,9.3203125 c 5.9e-4,-0.3151824 0.06104,-0.5524249 0.08594,-0.5761719 l 5.435546,-5.1835937 c 0.46002,-0.4387278 0.572276,-1.0848648 0.375,-1.6113282 C 15.707023,1.4227554 15.167931,1 14.500002,1 H 1.5 C 0.83207057,1 0.29297839,1.4227554 0.09570312,1.9492187 -0.10157214,2.4756821 0.01068223,3.1218191 0.47070313,3.5605469 L 5.90625,8.7441406 c 0.024899,0.023747 0.085346,0.2609895 0.085937,0.5761719 L 6,13.75 9.2207,15.914063 C 9.5533093,16.137976 10.000966,15.899002 10,15.498047 M 8.9960938,14.558594 7,13.216797 6.9921875,9.3183594 C 6.9915694,8.9892608 7.0370426,8.4423955 6.5957031,8.0214844 L 1.1601562,2.8378906 C 0.98965295,2.6752794 0.96841532,2.4717256 1.0332031,2.2988281 1.0979909,2.1259306 1.2169582,2 1.5,2 h 13.000002 c 0.283041,0 0.402009,0.1259306 0.466796,0.2988281 0.06479,0.1728975 0.04355,0.3764513 -0.126953,0.5390625 L 9.4042985,8.0214844 C 8.962959,8.4423955 9.0084322,8.9892608 9.0078116,9.3183594"
       sodipodi:nodetypes="cccsccscccccccccccsccsccc" />
  </g>
</svg>
