<?xml version="1.0" encoding="UTF-8" standalone="no"?>
<!-- Created with Inkscape (http://www.inkscape.org/) -->

<svg
   width="16mm"
   height="16mm"
   viewBox="0 0 16 16"
   version="1.1"
   id="svg5"
   inkscape:version="1.1.2 (0a00cf5339, 2022-02-04, custom)"
   sodipodi:docname="info_path.svg"
   xmlns:inkscape="http://www.inkscape.org/namespaces/inkscape"
   xmlns:sodipodi="http://sodipodi.sourceforge.net/DTD/sodipodi-0.dtd"
   xmlns="http://www.w3.org/2000/svg"
   xmlns:svg="http://www.w3.org/2000/svg">
  <sodipodi:namedview
     id="namedview7"
     pagecolor="#ffffff"
     bordercolor="#666666"
     borderopacity="1.0"
     inkscape:pageshadow="2"
     inkscape:pageopacity="0.0"
     inkscape:pagecheckerboard="0"
     inkscape:document-units="mm"
     showgrid="false"
     inkscape:zoom="2.0938813"
     inkscape:cx="-55.638302"
     inkscape:cy="61.130495"
     inkscape:window-width="1920"
     inkscape:window-height="1017"
     inkscape:window-x="-8"
     inkscape:window-y="-8"
     inkscape:window-maximized="1"
     inkscape:current-layer="layer1" />
  <defs
     id="defs2" />
  <g
     inkscape:label="Layer 1"
     inkscape:groupmode="layer"
     id="layer1">
    <path
       id="path1518"
       style="stroke-linecap:round;stroke-linejoin:round"
       d="M 8.25,4.5 A 0.75,0.75 0 0 1 7.5,5.25 0.75,0.75 0 0 1 6.75,4.5 0.75,0.75 0 0 1 7.5,3.75 0.75,0.75 0 0 1 8.25,4.5 Z M 7.5,6 A 0.5,0.5 0 0 0 7,6.5 v 4 A 0.5,0.5 0 0 0 7.5,11 0.5,0.5 0 0 0 8,10.5 v -4 A 0.5,0.5 0 0 0 7.5,6 Z m 0,-6 C 3.3637908,0 0,3.3637908 0,7.5 0,11.636209 3.3637908,15 7.5,15 11.636209,15 15,11.636209 15,7.5 15,3.3637908 11.636209,0 7.5,0 Z m 0,1 C 11.09577,1 14,3.9042304 14,7.5 14,11.09577 11.09577,14 7.5,14 3.9042304,14 1,11.09577 1,7.5 1,3.9042304 3.9042304,1 7.5,1 Z" />
  </g>
</svg>
