<?xml version="1.0" encoding="UTF-8" standalone="no"?>
<!-- Created with Inkscape (http://www.inkscape.org/) -->

<svg
   width="16mm"
   height="16mm"
   viewBox="0 0 16 16"
   version="1.1"
   id="svg5"
   sodipodi:docname="join.svg"
   inkscape:version="1.1.2 (0a00cf5339, 2022-02-04, custom)"
   inkscape:export-filename="C:\Users\evash\Desktop\bitmap.png"
   inkscape:export-xdpi="101.6"
   inkscape:export-ydpi="101.6"
   xmlns:inkscape="http://www.inkscape.org/namespaces/inkscape"
   xmlns:sodipodi="http://sodipodi.sourceforge.net/DTD/sodipodi-0.dtd"
   xmlns="http://www.w3.org/2000/svg"
   xmlns:svg="http://www.w3.org/2000/svg">
  <sodipodi:namedview
     id="namedview7"
     pagecolor="#ffffff"
     bordercolor="#666666"
     borderopacity="1.0"
     inkscape:pageshadow="2"
     inkscape:pageopacity="0.0"
     inkscape:pagecheckerboard="0"
     inkscape:document-units="mm"
     showgrid="false"
     width="16mm"
     showguides="false"
     inkscape:zoom="0.7402988"
     inkscape:cx="607.18726"
     inkscape:cy="-60.786267"
     inkscape:window-width="1920"
     inkscape:window-height="1017"
     inkscape:window-x="-8"
     inkscape:window-y="-8"
     inkscape:window-maximized="1"
     inkscape:current-layer="layer1" />
  <defs
     id="defs2" />
  <g
     inkscape:label="Layer 1"
     inkscape:groupmode="layer"
     id="layer1">
    <path
       id="path828"
       style="color:#000000;fill:#000000;stroke-width:3.77953;stroke-linecap:round;stroke-linejoin:round;-inkscape-stroke:none"
       d="m 17.832031,17.007812 c 4.047363,3.710291 7.406521,8.890672 10.816407,14.248047 a 1.8897638,1.8897638 0 0 0 2.607421,0.582032 1.8897638,1.8897638 0 0 0 0.582032,-2.605469 c -2.686487,-4.220821 -5.411158,-8.544457 -8.685547,-12.22461 z"
       transform="scale(0.26458333)" />
    <circle
       style="fill:#000000;fill-opacity:1;stroke:none;stroke-width:1;stroke-linecap:round;stroke-linejoin:round"
       id="path850"
       cx="1"
       cy="2.5"
       r="1" />
    <circle
       style="fill:#000000;fill-opacity:1;stroke:none;stroke-width:1;stroke-linecap:round;stroke-linejoin:round"
       id="path850-3"
       cx="15"
       cy="2.5"
       r="1" />
    <circle
       style="fill:#000000;fill-opacity:1;stroke:none;stroke-width:1;stroke-linecap:round;stroke-linejoin:round"
       id="path850-3-7"
       cx="15"
       cy="13.5"
       r="1" />
    <circle
       style="fill:#000000;fill-opacity:1;stroke:none;stroke-width:1;stroke-linecap:round;stroke-linejoin:round"
       id="circle1149"
       cx="1"
       cy="13.5"
       r="1" />
    <path
       id="path7701"
       style="fill:none;stroke:#000000;stroke-width:3.77953;stroke-linecap:round;stroke-linejoin:round;stroke-miterlimit:4;stroke-dasharray:none;stroke-opacity:1"
       d="M 14.740234,48.125 C 27.815719,40.50248 32.665342,19.953992 45.746094,12.339844 45.491315,11.397226 45.359364,10.425645 45.353516,9.4492188 H 15.117188"
       transform="scale(0.26458333)"
       sodipodi:nodetypes="cccc" />
    <path
       id="path1935"
       style="color:#000000;fill:#000000;stroke-width:3.77953;stroke-linecap:round;stroke-linejoin:round;-inkscape-stroke:none"
       d="m 35.90625,35.408203 c -0.707488,1.117346 -1.424075,2.24855 -2.171875,3.396485 2.868311,3.887116 6.073825,7.432967 10.025391,10.033203 -0.01701,0.09812 -0.02199,0.19838 -0.03711,0.296875 H 25.664062 c -1.354134,1.346244 -2.82281,2.617463 -4.4375,3.779296 h 24.126954 a 1.8899528,1.8899528 0 0 0 1.890625,-1.875 c 0.0049,-0.813694 0.111885,-1.628544 0.324218,-2.414062 A 1.8899528,1.8899528 0 0 0 46.697266,46.498047 C 42.508793,44.059991 39.108365,40.018551 35.90625,35.408203 Z"
       transform="scale(0.26458333)" />
  </g>
</svg>
