<?xml version="1.0" encoding="UTF-8" standalone="no"?>
<!-- Created with Inkscape (http://www.inkscape.org/) -->

<svg
   width="16mm"
   height="16mm"
   viewBox="0 0 16 16"
   version="1.1"
   id="svg5"
   sodipodi:docname="join_path.svg"
   inkscape:version="1.1.2 (0a00cf5339, 2022-02-04, custom)"
   inkscape:export-filename="C:\Users\evash\Desktop\bitmap.png"
   inkscape:export-xdpi="101.6"
   inkscape:export-ydpi="101.6"
   xmlns:inkscape="http://www.inkscape.org/namespaces/inkscape"
   xmlns:sodipodi="http://sodipodi.sourceforge.net/DTD/sodipodi-0.dtd"
   xmlns="http://www.w3.org/2000/svg"
   xmlns:svg="http://www.w3.org/2000/svg">
  <sodipodi:namedview
     id="namedview7"
     pagecolor="#ffffff"
     bordercolor="#666666"
     borderopacity="1.0"
     inkscape:pageshadow="2"
     inkscape:pageopacity="0.0"
     inkscape:pagecheckerboard="0"
     inkscape:document-units="mm"
     showgrid="false"
     width="16mm"
     showguides="false"
     inkscape:zoom="0.7402988"
     inkscape:cx="607.18726"
     inkscape:cy="-60.786267"
     inkscape:window-width="1920"
     inkscape:window-height="1017"
     inkscape:window-x="-8"
     inkscape:window-y="-8"
     inkscape:window-maximized="1"
     inkscape:current-layer="layer1" />
  <defs
     id="defs2" />
  <g
     inkscape:label="Layer 1"
     inkscape:groupmode="layer"
     id="layer1">
    <path
       id="path828"
       style="color:#000000;fill:#000000;stroke-width:0.999999;stroke-linecap:round;stroke-linejoin:round;-inkscape-stroke:none"
       d="M 0.999938,1.50016 C 0.447701,1.5002 3.37071e-5,1.94787 0,2.5001 3.36633e-5,3.05234 0.447701,3.50001 0.999938,3.50004 1.55217,3.50001 1.99984,3.05234 1.99988,2.5001 1.99984,1.94787 1.55217,1.5002 0.999938,1.50016 Z m 14.000162,0 c -0.5522,4e-5 -0.9999,0.44771 -0.9999,0.99994 0,0.55224 0.4477,0.99991 0.9999,0.99994 C 15.5523,3.50001 16,3.05234 16,2.5001 16,1.94787 15.5523,1.5002 15.0001,1.50016 Z M 3.99975,1.99988 C 3.86706,1.99981 3.73979,2.0525 3.64597,2.14632 3.55215,2.24015 3.49946,2.36742 3.49952,2.5001 c -6e-5,0.13269 0.05263,0.25996 0.14645,0.35378 0.09382,0.09383 0.22109,0.14651 0.35378,0.14645 h 7.56745 c 0.0021,0.01362 0.0035,0.02723 0.0057,0.04082 C 10.0766,4.01967 8.99872,5.52837 8.00053,7.07191 7.42253,6.17302 6.82115,5.28159 6.12572,4.49998 H 4.71805 C 5.72035,5.4188 6.5632,6.6792 7.40677,7.99898 6.27975,9.76271 5.15559,11.4224 3.64835,12.301 3.40977,12.44 3.32903,12.7461 3.468,12.9847 3.607,13.2233 3.91308,13.304 4.15168,13.1651 6.01505,12.0788 7.22197,10.1549 8.40051,8.30284 8.41575,8.28238 8.42939,8.26079 8.44133,8.23825 9.62086,6.38552 10.7787,4.61463 12.3553,3.69693 12.5504,3.58319 12.6451,3.35276 12.5863,3.13469 12.5301,2.92685 12.5013,2.71229 12.5,2.497 12.4984,2.22191 12.2749,1.99977 11.9998,1.99988 Z M 9.50018,9.36841 C 9.31299,9.66404 9.1234,9.96334 8.92554,10.2671 c 0.75891,1.0284 1.60706,1.9666 2.65256,2.6546 -0.0045,0.0259 -0.0058,0.0525 -0.0098,0.0785 H 6.79027 c -0.35828,0.3562 -0.74686,0.6926 -1.17408,1 h 6.38361 c 0.2747,10e-5 0.498,-0.2214 0.5002,-0.4961 0.0013,-0.2153 0.0296,-0.4309 0.0858,-0.6388 0.0591,-0.2181 -0.0353,-0.4488 -0.2305,-0.5627 C 11.2471,11.6575 10.3474,10.5882 9.50018,9.36841 Z M 0.999938,12.5 C 0.447701,12.5 3.36925e-5,12.9477 0,13.4999 c 3.38386e-5,0.5523 0.447701,0.9999 0.999938,1 0.552232,-10e-5 0.999902,-0.4477 0.999942,-1 C 1.99984,12.9477 1.55217,12.5 0.999938,12.5 Z m 14.000162,0 c -0.5522,0 -0.9999,0.4477 -0.9999,0.9999 0,0.5523 0.4477,0.9999 0.9999,1 C 15.5523,14.4998 16,14.0522 16,13.4999 16,12.9477 15.5523,12.5 15.0001,12.5 Z" />
  </g>
</svg>
