<?xml version="1.0" encoding="UTF-8" standalone="no"?>
<!-- Created with Inkscape (http://www.inkscape.org/) -->

<svg
   width="16mm"
   height="16mm"
   viewBox="0 0 16 16"
   version="1.1"
   id="svg5"
   sodipodi:docname="join_path.svg"
   inkscape:version="1.1.2 (0a00cf5339, 2022-02-04, custom)"
   inkscape:export-filename="C:\Users\evash\Desktop\bitmap.png"
   inkscape:export-xdpi="25.4"
   inkscape:export-ydpi="25.4"
   xmlns:inkscape="http://www.inkscape.org/namespaces/inkscape"
   xmlns:sodipodi="http://sodipodi.sourceforge.net/DTD/sodipodi-0.dtd"
   xmlns="http://www.w3.org/2000/svg"
   xmlns:svg="http://www.w3.org/2000/svg">
  <sodipodi:namedview
     id="namedview7"
     pagecolor="#ffffff"
     bordercolor="#666666"
     borderopacity="1.0"
     inkscape:pageshadow="2"
     inkscape:pageopacity="0.0"
     inkscape:pagecheckerboard="0"
     inkscape:document-units="mm"
     showgrid="false"
     width="16mm"
     showguides="false"
     inkscape:zoom="5.9223905"
     inkscape:cx="3.4614401"
     inkscape:cy="1.1819552"
     inkscape:window-width="1920"
     inkscape:window-height="1017"
     inkscape:window-x="-8"
     inkscape:window-y="-8"
     inkscape:window-maximized="1"
     inkscape:current-layer="layer1" />
  <defs
     id="defs2" />
  <g
     inkscape:label="Layer 1"
     inkscape:groupmode="layer"
     id="layer1">
    <path
       id="path850"
       style="color:#000000;fill:#000000;stroke-width:0.999999;stroke-linecap:round;stroke-linejoin:round;-inkscape-stroke:none"
       d="M 1.50016,0.999938 C 0.677662,0.999938 0,1.6776 0,2.5001 c 0,0.82251 0.677662,1.49965 1.50016,1.49965 0.64755,0 1.20489,-0.41992 1.41284,-0.99994 h 8.8175 C 11.3799,3.2535 11.0421,3.54416 10.7166,3.86126 9.76036,4.79288 8.88234,5.96264 8.01811,7.15098 7.19534,6.02058 6.35746,4.90761 5.45031,3.99975 H 3.95479 C 4.1739,4.17344 4.39223,4.36597 4.61108,4.57801 5.55532,5.49287 6.47618,6.72676 7.40006,7.99898 6.47614,9.27128 5.55537,10.5071 4.61108,11.422 4.00438,12.0099 3.39976,12.4578 2.78071,12.7238 2.51621,12.2912 2.03952,11.9998 1.50016,11.9998 0.677662,11.9998 0,12.6774 0,13.4999 c 0,0.8225 0.677662,1.5002 1.50016,1.5002 0.74811,0 1.37612,-0.5608 1.48363,-1.2811 C 3.82559,13.3994 4.596,12.8314 5.30871,12.1408 6.42049,11.0637 7.42575,9.66821 8.4217,8.29302 9.41765,6.91784 10.4043,5.56139 11.4158,4.57594 c 0.5998,-0.58428 1.1967,-1.02871 1.8061,-1.29449 0.2651,0.42968 0.7407,0.7183 1.278,0.7183 C 15.3224,3.99975 16,3.32261 16,2.5001 16,1.6776 15.3224,0.999938 14.4999,0.999938 c -0.6476,0 -1.2049,0.419922 -1.4129,0.999942 H 2.913 C 2.70505,1.41986 2.14771,0.999938 1.50016,0.999938 Z m 0,0.999942 c 0.28207,0 0.49972,0.21816 0.49972,0.50022 0,0.28207 -0.21765,0.49971 -0.49972,0.49971 -0.28206,0 -0.500222,-0.21764 -0.500222,-0.49971 0,-0.28206 0.218162,-0.50022 0.500222,-0.50022 z m 12.99974,0 c 0.282,0 0.5002,0.21816 0.5002,0.50022 0,0.28207 -0.2182,0.49971 -0.5002,0.49971 -0.2821,0 -0.4997,-0.21764 -0.4997,-0.49971 0,-0.28206 0.2176,-0.50022 0.4997,-0.50022 z M 9.25575,8.84751 C 9.248,8.85822 9.24026,8.86832 9.2325,8.87903 9.03701,9.14896 8.83868,9.42135 8.63977,9.69345 c 0.66604,0.88825 1.34875,1.73595 2.07683,2.44535 0.3252,0.3167 0.6627,0.6078 1.0129,0.8614 H 5.85442 c -0.38928,0.3646 -0.80682,0.7058 -1.25419,1 H 13.087 c 0.208,0.58 0.7653,0.9999 1.4129,0.9999 0.8225,0 1.5001,-0.6777 1.5001,-1.5002 0,-0.8225 -0.6776,-1.5001 -1.5001,-1.5001 -0.5374,0 -1.0129,0.2894 -1.278,0.7193 C 12.6125,12.4532 12.0156,12.0079 11.4158,11.4236 10.6872,10.7137 9.97134,9.81054 9.25575,8.84751 Z M 1.50016,13.0002 c 0.28207,0 0.49972,0.2177 0.49972,0.4997 0,0.2821 -0.21765,0.5003 -0.49972,0.5003 -0.28206,0 -0.500222,-0.2182 -0.500222,-0.5003 0,-0.282 0.218162,-0.4997 0.500222,-0.4997 z m 12.99974,0 c 0.282,0 0.5002,0.2177 0.5002,0.4997 0,0.2821 -0.2182,0.5003 -0.5002,0.5003 -0.2821,0 -0.4997,-0.2182 -0.4997,-0.5003 0,-0.282 0.2176,-0.4997 0.4997,-0.4997 z" />
  </g>
</svg>
