<?xml version="1.0" encoding="UTF-8" standalone="no"?>
<!-- Created with Inkscape (http://www.inkscape.org/) -->

<svg
   width="16mm"
   height="16mm"
   viewBox="0 0 16 16"
   version="1.1"
   id="svg5"
   inkscape:version="1.1.2 (0a00cf5339, 2022-02-04, custom)"
   sodipodi:docname="lightbulb_path.svg"
   xmlns:inkscape="http://www.inkscape.org/namespaces/inkscape"
   xmlns:sodipodi="http://sodipodi.sourceforge.net/DTD/sodipodi-0.dtd"
   xmlns="http://www.w3.org/2000/svg"
   xmlns:svg="http://www.w3.org/2000/svg">
  <sodipodi:namedview
     id="namedview7"
     pagecolor="#ffffff"
     bordercolor="#666666"
     borderopacity="1.0"
     inkscape:pageshadow="2"
     inkscape:pageopacity="0.0"
     inkscape:pagecheckerboard="0"
     inkscape:document-units="mm"
     showgrid="false"
     inkscape:zoom="2.8284271"
     inkscape:cx="-106.24279"
     inkscape:cy="15.556349"
     inkscape:window-width="1920"
     inkscape:window-height="1017"
     inkscape:window-x="-8"
     inkscape:window-y="-8"
     inkscape:window-maximized="1"
     inkscape:current-layer="layer1" />
  <defs
     id="defs2" />
  <g
     inkscape:label="Layer 1"
     inkscape:groupmode="layer"
     id="layer1">
    <path
       id="path15064"
       style="color:#000000;fill:#000000;stroke-width:0.999999;stroke-linecap:round;stroke-linejoin:round;-inkscape-stroke:none"
       d="M 8.00002,0 C 4.69218,0 1.99988,2.69285 1.99988,6.00014 c 0,2.3387 1.6244,3.77673 1.9823,4.13466 0.32847,0.3284 0.34519,0.5101 0.47852,1.0077 0.05561,0.2075 0.22213,0.9375 0.39068,1.6603 0.16855,0.7228 0.3353,1.4326 0.44183,1.7736 C 5.52943,15.3323 6.19987,16 7.08793,16 h 1.82418 c 0.88805,0 1.55849,-0.6677 1.79469,-1.4236 0.1066,-0.341 0.2733,-1.0508 0.4419,-1.7736 0.1685,-0.7228 0.3345,-1.4528 0.3901,-1.6603 0.1333,-0.4976 0.1501,-0.6793 0.4785,-1.0077 C 12.3752,9.77687 14.0002,8.33884 14.0002,6.00014 14.0002,2.69285 11.3079,0 8.00002,0 Z m 0,0.999938 c 2.76728,0 5.00018,2.233442 5.00018,5.000202 0,1.88787 -1.234,2.96983 -1.6898,3.42563 -0.4852,0.48522 -0.6113,0.98633 -0.7379,1.45883 -0.0533,0.1986 -0.1538,0.6336 -0.2651,1.1152 H 5.69267 C 5.58133,11.5182 5.48079,11.0832 5.42757,10.8846 5.30096,10.4121 5.17486,9.91099 4.68963,9.42577 4.23383,8.96997 2.99981,7.88801 2.99981,6.00014 c 0,-2.76676 2.23293,-5.000202 5.00021,-5.000202 z M 5.92625,13.0002 h 4.14755 c -0.13518,0.5701 -0.26425,1.0923 -0.32195,1.2769 -0.1208,0.3866 -0.49303,0.723 -0.83974,0.723 H 7.08793 c -0.34672,0 -0.71894,-0.3364 -0.83974,-0.723 C 6.19048,14.0925 6.06141,13.5703 5.92625,13.0002 Z" />
  </g>
</svg>
