<?xml version="1.0" encoding="UTF-8" standalone="no"?>
<!-- Created with Inkscape (http://www.inkscape.org/) -->

<svg
   width="16mm"
   height="16mm"
   viewBox="0 0 16 16"
   version="1.1"
   id="svg5"
   inkscape:version="1.1.2 (0a00cf5339, 2022-02-04, custom)"
   sodipodi:docname="lightbulb.svg"
   xmlns:inkscape="http://www.inkscape.org/namespaces/inkscape"
   xmlns:sodipodi="http://sodipodi.sourceforge.net/DTD/sodipodi-0.dtd"
   xmlns="http://www.w3.org/2000/svg"
   xmlns:svg="http://www.w3.org/2000/svg">
  <sodipodi:namedview
     id="namedview7"
     pagecolor="#ffffff"
     bordercolor="#666666"
     borderopacity="1.0"
     inkscape:pageshadow="2"
     inkscape:pageopacity="0.0"
     inkscape:pagecheckerboard="0"
     inkscape:document-units="mm"
     showgrid="false"
     inkscape:zoom="0.70710678"
     inkscape:cx="-491.43921"
     inkscape:cy="-14.142136"
     inkscape:window-width="1920"
     inkscape:window-height="1017"
     inkscape:window-x="-8"
     inkscape:window-y="-8"
     inkscape:window-maximized="1"
     inkscape:current-layer="layer1" />
  <defs
     id="defs2" />
  <g
     inkscape:label="Layer 1"
     inkscape:groupmode="layer"
     id="layer1">
    <path
       id="path15064"
       style="fill:none;stroke:#000000;stroke-linecap:round;stroke-linejoin:round;stroke-opacity:1"
       d="M 7.0876978,15.5 C 6.4703102,15.5 5.9496762,14.998673 5.7711666,14.427398 5.592657,13.856123 5.0741138,11.499159 4.9441442,11.014106 4.8141746,10.529053 4.7427919,10.187089 4.3359445,9.7802421 3.9290971,9.3733947 2.5,8.1132863 2.5,6 2.5,2.9629634 4.962434,0.5 8,0.5 c 3.037566,0 5.5,2.4629634 5.5,5.5 0,2.1132863 -1.429097,3.3733947 -1.835945,3.7802421 -0.406847,0.4068469 -0.47823,0.7488109 -0.608199,1.2338639 -0.12997,0.485053 -0.648513,2.842017 -0.827023,3.413292 C 10.050324,14.998673 9.5296898,15.5 8.9123022,15.5 Z"
       sodipodi:nodetypes="ssssszssssss" />
    <path
       style="fill:none;stroke:#000000;stroke-width:1;stroke-linecap:butt;stroke-linejoin:miter;stroke-miterlimit:4;stroke-dasharray:none;stroke-opacity:1"
       d="m 5.25,12.5 h 5.5"
       id="path18143"
       sodipodi:nodetypes="cc" />
  </g>
</svg>
