<?xml version="1.0" encoding="UTF-8" standalone="no"?>
<!-- Created with Inkscape (http://www.inkscape.org/) -->

<svg
   width="16mm"
   height="16mm"
   viewBox="0 0 16 16"
   version="1.1"
   id="svg5"
   inkscape:version="1.1.2 (0a00cf5339, 2022-02-04, custom)"
   sodipodi:docname="link_path.svg"
   xmlns:inkscape="http://www.inkscape.org/namespaces/inkscape"
   xmlns:sodipodi="http://sodipodi.sourceforge.net/DTD/sodipodi-0.dtd"
   xmlns="http://www.w3.org/2000/svg"
   xmlns:svg="http://www.w3.org/2000/svg">
  <sodipodi:namedview
     id="namedview7"
     pagecolor="#ffffff"
     bordercolor="#666666"
     borderopacity="1.0"
     inkscape:pageshadow="2"
     inkscape:pageopacity="0.0"
     inkscape:pagecheckerboard="0"
     inkscape:document-units="mm"
     showgrid="false"
     inkscape:zoom="8.3755251"
     inkscape:cx="21.073306"
     inkscape:cy="50.026714"
     inkscape:window-width="1920"
     inkscape:window-height="1017"
     inkscape:window-x="-8"
     inkscape:window-y="-8"
     inkscape:window-maximized="1"
     inkscape:current-layer="layer1" />
  <defs
     id="defs2" />
  <g
     inkscape:label="Layer 1"
     inkscape:groupmode="layer"
     id="layer1">
    <path
       id="path1697"
       style="color:#000000;fill:#000000;stroke-linecap:round;stroke-linejoin:round;-inkscape-stroke:none"
       d="M 11.5,8 C 11.776142,8 12,7.7761424 12,7.5 12,7.2238576 11.776142,7 11.5,7 h -7 C 4.223858,7 4,7.2238576 4,7.5 4,7.7761424 4.223858,8 4.5,8 m 0,-5 C 2.020643,3 0,5.0206434 0,7.5 0,9.9793566 2.020643,12 4.5,12 h 2 A 0.5,0.5 0 0 0 7,11.5 0.5,0.5 0 0 0 6.5,11 h -2 C 2.561083,11 1,9.438917 1,7.5 1,5.561083 2.561083,4 4.5,4 h 2 A 0.5,0.5 0 0 0 7,3.5 0.5,0.5 0 0 0 6.5,3 Z m 7,0 C 13.979357,3 16,5.0206434 16,7.5 16,9.9793566 13.979357,12 11.5,12 h -2 A 0.5,0.5 0 0 1 9,11.5 0.5,0.5 0 0 1 9.5,11 h 2 C 13.438917,11 15,9.438917 15,7.5 15,5.561083 13.438917,4 11.5,4 h -2 A 0.5,0.5 0 0 1 9,3.5 0.5,0.5 0 0 1 9.5,3 Z" />
  </g>
</svg>
