<?xml version="1.0" encoding="UTF-8" standalone="no"?>
<!-- Created with Inkscape (http://www.inkscape.org/) -->

<svg
   width="16mm"
   height="16mm"
   viewBox="0 0 16 16"
   version="1.1"
   id="svg5"
   inkscape:version="1.1.2 (0a00cf5339, 2022-02-04, custom)"
   sodipodi:docname="unlink.svg"
   xmlns:inkscape="http://www.inkscape.org/namespaces/inkscape"
   xmlns:sodipodi="http://sodipodi.sourceforge.net/DTD/sodipodi-0.dtd"
   xmlns="http://www.w3.org/2000/svg"
   xmlns:svg="http://www.w3.org/2000/svg">
  <sodipodi:namedview
     id="namedview7"
     pagecolor="#ffffff"
     bordercolor="#666666"
     borderopacity="1.0"
     inkscape:pageshadow="2"
     inkscape:pageopacity="0.0"
     inkscape:pagecheckerboard="0"
     inkscape:document-units="mm"
     showgrid="false"
     inkscape:zoom="1.0469406"
     inkscape:cx="182.9139"
     inkscape:cy="230.19452"
     inkscape:window-width="1920"
     inkscape:window-height="1017"
     inkscape:window-x="-8"
     inkscape:window-y="-8"
     inkscape:window-maximized="1"
     inkscape:current-layer="layer1" />
  <defs
     id="defs2" />
  <g
     inkscape:label="Layer 1"
     inkscape:groupmode="layer"
     id="layer1">
    <path
       id="path2233"
       style="color:#000000;fill:#000000;stroke-width:3.77953;stroke-linecap:round;stroke-linejoin:round;-inkscape-stroke:none"
       d="m 35.90625,11.337891 a 1.8897638,1.8897638 0 0 0 -1.890625,1.890625 1.8897638,1.8897638 0 0 0 1.890625,1.888672 h 7.558594 c 7.32819,0 13.228515,5.900325 13.228515,13.228515 0,5.639688 -3.496739,10.432057 -8.447265,12.341797 l 2.849609,2.849609 c 5.553339,-2.804106 9.376953,-8.562743 9.376953,-15.191406 0,-9.370796 -7.637014,-17.007812 -17.007812,-17.007812 z"
       transform="scale(0.26458333)" />
    <path
       id="path2226"
       style="color:#000000;fill:#000000;stroke-width:3.77953;stroke-linecap:round;stroke-linejoin:round;-inkscape-stroke:none"
       d="m 34.015625,26.457031 3.779297,3.779297 h 5.669922 a 1.8897638,1.8897638 0 0 0 1.888672,-1.890625 1.8897638,1.8897638 0 0 0 -1.888672,-1.888672 z"
       transform="scale(0.26458333)" />
    <path
       id="path2687"
       style="fill:none;stroke:#000000;stroke-width:3.77953;stroke-linecap:round;stroke-linejoin:round"
       d="M 13.306641,13.685547 C 6.7468206,15.336718 1.890625,21.273398 1.890625,28.345703 c 0,8.349502 6.7676858,15.119141 15.117187,15.119141 h 7.558594"
       transform="scale(0.26458333)"
       sodipodi:nodetypes="cssc" />
    <path
       id="path3362"
       style="fill:none;stroke:#000000;stroke-linecap:round;stroke-linejoin:round"
       d="M 11.4,11.5 H 9.5"
       sodipodi:nodetypes="cc" />
    <path
       style="fill:none;stroke:#000000;stroke-width:1;stroke-linecap:round;stroke-linejoin:round;stroke-miterlimit:4;stroke-dasharray:none;stroke-opacity:1"
       d="m 4.5,7.5 2.9,0"
       id="path3397"
       sodipodi:nodetypes="cc" />
    <path
       style="fill:none;stroke:#000000;stroke-width:1;stroke-linecap:round;stroke-linejoin:round;stroke-miterlimit:4;stroke-dasharray:none;stroke-opacity:1"
       d="m 0.5,0.5 15,15"
       id="path944"
       sodipodi:nodetypes="cc" />
    <path
       id="path1989"
       style="color:#000000;fill:#000000;stroke-width:3.77953;stroke-linecap:round;stroke-linejoin:round;-inkscape-stroke:none"
       d="m 18.896484,11.337891 3.779297,3.779297 h 1.890625 a 1.8897638,1.8897638 0 0 0 1.890625,-1.888672 1.8897638,1.8897638 0 0 0 -1.890625,-1.890625 z"
       transform="scale(0.26458333)" />
  </g>
</svg>
