<?xml version="1.0" encoding="UTF-8" standalone="no"?>
<!-- Created with Inkscape (http://www.inkscape.org/) -->

<svg
   width="16mm"
   height="16mm"
   viewBox="0 0 16 16"
   version="1.1"
   id="svg5"
   inkscape:version="1.1.2 (0a00cf5339, 2022-02-04, custom)"
   sodipodi:docname="new_path.svg"
   xmlns:inkscape="http://www.inkscape.org/namespaces/inkscape"
   xmlns:sodipodi="http://sodipodi.sourceforge.net/DTD/sodipodi-0.dtd"
   xmlns="http://www.w3.org/2000/svg"
   xmlns:svg="http://www.w3.org/2000/svg">
  <sodipodi:namedview
     id="namedview7"
     pagecolor="#ffffff"
     bordercolor="#666666"
     borderopacity="1.0"
     inkscape:pageshadow="2"
     inkscape:pageopacity="0.0"
     inkscape:pagecheckerboard="0"
     inkscape:document-units="mm"
     showgrid="false"
     inkscape:zoom="5.9223906"
     inkscape:cx="89.913016"
     inkscape:cy="55.383041"
     inkscape:window-width="1920"
     inkscape:window-height="1017"
     inkscape:window-x="-8"
     inkscape:window-y="-8"
     inkscape:window-maximized="1"
     inkscape:current-layer="layer1" />
  <defs
     id="defs2" />
  <g
     inkscape:label="Layer 1"
     inkscape:groupmode="layer"
     id="layer1">
    <path
       id="path869"
       style="color:#000000;fill:#000000;stroke-width:0.999999;stroke-linecap:round;stroke-linejoin:round;-inkscape-stroke:none"
       d="M 7.49979,0.999938 C 7.22367,1.0001 6.99995,1.22405 7.00008,1.50016 V 7.00008 H 1.50016 C 1.22405,6.99995 1.0001,7.22367 0.999938,7.49979 0.999877,7.63248 1.05256,7.75975 1.14638,7.85357 1.24021,7.9474 1.36748,8.00008 1.50016,8.00002 h 5.49992 v 5.49988 c -1.3e-4,0.2762 0.22359,0.5001 0.49971,0.5003 0.13269,0 0.25996,-0.0527 0.35378,-0.1465 0.09383,-0.0938 0.14651,-0.2211 0.14645,-0.3538 V 8.00002 h 5.49988 c 0.1327,6e-5 0.26,-0.05262 0.3538,-0.14645 C 13.9475,7.75975 14.0002,7.63248 14.0002,7.49979 14,7.22367 13.7761,6.99995 13.4999,7.00008 H 8.00002 V 1.50016 C 8.00008,1.36748 7.9474,1.24021 7.85357,1.14638 7.75975,1.05256 7.63248,0.999877 7.49979,0.999938 Z" />
  </g>
</svg>
