<?xml version="1.0" encoding="UTF-8" standalone="no"?>
<!-- Created with Inkscape (http://www.inkscape.org/) -->

<svg
   width="16mm"
   height="16mm"
   viewBox="0 0 16 16"
   version="1.1"
   id="svg5"
   inkscape:version="1.1.2 (0a00cf5339, 2022-02-04, custom)"
   sodipodi:docname="warning_path.svg"
   xmlns:inkscape="http://www.inkscape.org/namespaces/inkscape"
   xmlns:sodipodi="http://sodipodi.sourceforge.net/DTD/sodipodi-0.dtd"
   xmlns="http://www.w3.org/2000/svg"
   xmlns:svg="http://www.w3.org/2000/svg">
  <sodipodi:namedview
     id="namedview7"
     pagecolor="#ffffff"
     bordercolor="#666666"
     borderopacity="1.0"
     inkscape:pageshadow="2"
     inkscape:pageopacity="0.0"
     inkscape:pagecheckerboard="0"
     inkscape:document-units="mm"
     showgrid="false"
     inkscape:zoom="2.9611953"
     inkscape:cx="45.758549"
     inkscape:cy="44.576594"
     inkscape:window-width="1920"
     inkscape:window-height="1017"
     inkscape:window-x="-8"
     inkscape:window-y="-8"
     inkscape:window-maximized="1"
     inkscape:current-layer="layer1" />
  <defs
     id="defs2">
    <inkscape:path-effect
       effect="fillet_chamfer"
       id="path-effect5354"
       is_visible="true"
       lpeversion="1"
       satellites_param="F,0,0,1,0,3.96875,0,1 @ F,0,0,1,0,3.96875,0,1 @ F,0,0,1,0,3.96875,0,1"
       unit="px"
       method="auto"
       mode="F"
       radius="15"
       chamfer_steps="1"
       flexible="false"
       use_knot_distance="true"
       apply_no_radius="true"
       apply_with_radius="true"
       only_selected="false"
       hide_knots="false" />
    <inkscape:path-effect
       effect="fillet_chamfer"
       id="path-effect5067"
       is_visible="true"
       lpeversion="1"
       satellites_param="F,0,0,1,0,2.9104167,0,1 @ F,0,0,1,0,2.9104167,0,1 @ F,0,0,1,0,2.9104167,0,1"
       unit="px"
       method="auto"
       mode="F"
       radius="11"
       chamfer_steps="1"
       flexible="false"
       use_knot_distance="true"
       apply_no_radius="true"
       apply_with_radius="true"
       only_selected="false"
       hide_knots="false" />
    <inkscape:path-effect
       effect="fillet_chamfer"
       id="path-effect4724"
       is_visible="true"
       lpeversion="1"
       satellites_param="F,0,0,1,0,2.6458333,0,1 @ F,0,0,1,0,2.6458333,0,1 @ F,0,0,1,0,2.6458333,0,1"
       unit="px"
       method="auto"
       mode="F"
       radius="10"
       chamfer_steps="1"
       flexible="false"
       use_knot_distance="true"
       apply_no_radius="true"
       apply_with_radius="true"
       only_selected="false"
       hide_knots="false" />
  </defs>
  <g
     inkscape:label="Layer 1"
     inkscape:groupmode="layer"
     id="layer1">
    <path
       id="path10367"
       style="stroke-linecap:round;stroke-linejoin:round;stroke-opacity:0.599068"
       d="M 8.25,11.5 A 0.75,0.75 0 0 1 7.5,12.25 0.75,0.75 0 0 1 6.75,11.5 0.75,0.75 0 0 1 7.5,10.75 0.75,0.75 0 0 1 8.25,11.5 Z M 7.5,5 A 0.5,0.5 0 0 0 7,5.5 v 4 A 0.5,0.5 0 0 0 7.5,10 0.5,0.5 0 0 0 8,9.5 v -4 A 0.5,0.5 0 0 0 7.5,5 Z M 7.4921875,0.25585938 C 6.9415393,0.25319937 6.391559,0.59188024 6.1289062,1.1660156 L 6.1347656,1.1484375 0.25,12.896484 C 0.02382845,13.347897 0.05247815,13.848246 0.24804688,14.251953 0.4436156,14.65566 0.8540245,15 1.3710937,15 H 13.630859 c 0.51707,0 0.927193,-0.344411 1.123047,-0.748047 0.195854,-0.403636 0.224305,-0.903885 -0.002,-1.355469 L 8.8671875,1.1484375 C 8.5866716,0.58855915 8.0428357,0.25851938 7.4921875,0.25585938 Z m -0.00391,1.00000002 c 0.1711383,8.267e-4 0.3566005,0.086773 0.484375,0.3417968 L 13.857422,13.34375 c 0.07316,0.146011 0.06442,0.335879 -0.002,0.472656 C 13.789101,13.953184 13.712618,14 13.630859,14 H 1.3710937 C 1.2893372,14 1.2146626,13.953113 1.1484375,13.816406 1.0822124,13.6797 1.0712899,13.489931 1.1445312,13.34375 L 7.0292969,1.5976562 a 0.50005,0.50005 0 0 0 0.00781,-0.015625 C 7.1536345,1.3273177 7.317143,1.2550327 7.4882812,1.2558594 Z" />
  </g>
</svg>
